<svg xmlns="http://www.w3.org/2000/svg" width="180" height="80" viewBox="0 0 180 80">
  <g fill="#2D2F33" fill-rule="evenodd" transform="translate(15 12)">
    <path d="M5.85200038,12 L5.85200038,1.344 C6.52400038,1.232 7.40400038,1.136 8.52400038,1.136 C9.90000038,1.136 10.9080004,1.456 11.5480004,2.032 C12.1400004,2.544 12.4920004,3.328 12.4920004,4.288 C12.4920004,5.264 12.2040004,6.032 11.6600004,6.592 C10.9240004,7.376 9.72400038,7.776 8.36400038,7.776 C7.94800038,7.776 7.56400038,7.76 7.24400038,7.68 L7.24400038,12 L5.85200038,12 Z M7.24400038,2.352 L7.24400038,6.544 C7.54800038,6.624 7.93200038,6.656 8.39600038,6.656 C10.0760004,6.656 11.1000004,5.84 11.1000004,4.352 C11.1000004,2.928 10.0920004,2.24 8.55600038,2.24 C7.94800038,2.24 7.48400038,2.288 7.24400038,2.352 Z M15.3600003,12 L16.7520003,12 L16.7520003,7.872 C16.7520003,7.632 16.7840003,7.408 16.8160003,7.216 C17.0080003,6.16 17.7120003,5.408 18.7040003,5.408 C18.8960003,5.408 19.0400003,5.424 19.1840003,5.456 L19.1840003,4.128 C19.0560003,4.096 18.9440003,4.08 18.7840003,4.08 C17.8400003,4.08 16.9920003,4.736 16.6400003,5.776 L16.5760003,5.776 L16.5280003,4.256 L15.2960003,4.256 C15.3440003,4.976 15.3600003,5.76 15.3600003,6.672 L15.3600003,12 Z M25.0120003,4.08 C27.2360003,4.08 28.7400003,5.696 28.7400003,8.064 C28.7400003,10.928 26.7560003,12.176 24.8840003,12.176 C22.7880003,12.176 21.1720003,10.64 21.1720003,8.192 C21.1720003,5.6 22.8680003,4.08 25.0120003,4.08 Z M24.9800003,5.136 C23.3160003,5.136 22.5960003,6.672 22.5960003,8.144 C22.5960003,9.84 23.5720003,11.12 24.9480003,11.12 C26.2920003,11.12 27.3000003,9.856 27.3000003,8.112 C27.3000003,6.8 26.6440003,5.136 24.9800003,5.136 Z M38.2960002,4.256 L36.8880002,4.256 L36.8880002,9.008 C36.8880002,9.264 36.8400002,9.52 36.7600002,9.728 C36.5040002,10.352 35.8480002,11.008 34.9040002,11.008 C33.6240002,11.008 33.1760002,10.016 33.1760002,8.544 L33.1760002,4.256 L31.7680002,4.256 L31.7680002,8.784 C31.7680002,11.504 33.2240002,12.176 34.4400002,12.176 C35.8160002,12.176 36.6320002,11.36 37.0000002,10.736 L37.0320002,10.736 L37.1120002,12 L38.3600002,12 C38.3120002,11.392 38.2960002,10.688 38.2960002,9.888 L38.2960002,4.256 Z M47.2120002,0.64 L48.6200002,0.64 L48.6200002,10 C48.6200002,10.688 48.6360002,11.472 48.6840002,12 L47.4200002,12 L47.3560002,10.656 L47.3240002,10.656 C46.8920002,11.52 45.9480002,12.176 44.6840002,12.176 C42.8120002,12.176 41.3720002,10.592 41.3720002,8.24 C41.3560002,5.664 42.9560002,4.08 44.8440002,4.08 C46.0280002,4.08 46.8280002,4.64 47.1800002,5.264 L47.2120002,5.264 L47.2120002,0.64 Z M47.2120002,8.752 L47.2120002,7.408 C47.2120002,7.232 47.1960002,6.992 47.1480002,6.816 C46.9400002,5.92 46.1720002,5.184 45.1160002,5.184 C43.6600002,5.184 42.7960002,6.464 42.7960002,8.176 C42.7960002,9.744 43.5640002,11.04 45.0840002,11.04 C46.0280002,11.04 46.8920002,10.416 47.1480002,9.36 C47.1960002,9.168 47.2120002,8.976 47.2120002,8.752 Z M52.2560001,12 L53.6640001,12 L53.6640001,0.64 L52.2560001,0.64 L52.2560001,12 Z M56.3080001,4.256 L59.1720001,11.392 C59.2360001,11.568 59.2680001,11.68 59.2680001,11.76 C59.2680001,11.84 59.2200001,11.952 59.1560001,12.096 C58.8360001,12.816 58.3560001,13.36 57.9720001,13.664 C57.5560001,14.016 57.0920001,14.24 56.7400001,14.352 L57.0920001,15.536 C57.4440001,15.472 58.1320001,15.232 58.8200001,14.624 C59.7800001,13.792 60.4680001,12.432 61.4760001,9.776 L63.5880001,4.256 L62.1000001,4.256 L60.5640001,8.8 C60.3720001,9.36 60.2120001,9.952 60.0680001,10.416 L60.0360001,10.416 C59.9080001,9.952 59.7160001,9.344 59.5400001,8.832 L57.8440001,4.256 L56.3080001,4.256 Z M70.86,12 L72.268,12 L72.268,7.328 C72.268,7.056 72.284,6.848 72.364,6.656 C72.62,5.888 73.34,5.248 74.252,5.248 C75.58,5.248 76.044,6.304 76.044,7.552 L76.044,12 L77.452,12 L77.452,7.392 C77.452,4.72 75.788,4.08 74.748,4.08 C74.22,4.08 73.724,4.24 73.308,4.48 C72.876,4.72 72.524,5.072 72.3,5.472 L72.268,5.472 L72.268,0.64 L70.86,0.64 L70.86,12 Z M84.32,4.08 C86.544,4.08 88.048,5.696 88.048,8.064 C88.048,10.928 86.064,12.176 84.192,12.176 C82.096,12.176 80.48,10.64 80.48,8.192 C80.48,5.6 82.176,4.08 84.32,4.08 Z M84.288,5.136 C82.624,5.136 81.904,6.672 81.904,8.144 C81.904,9.84 82.88,11.12 84.256,11.12 C85.6,11.12 86.608,9.856 86.608,8.112 C86.608,6.8 85.952,5.136 84.288,5.136 Z M90.5799999,11.632 C91.1239999,11.952 91.9079999,12.16 92.7559999,12.16 C94.5959999,12.16 95.6519999,11.2 95.6519999,9.84 C95.6519999,8.688 94.9639999,8.016 93.6199999,7.504 C92.6119999,7.12 92.1479999,6.832 92.1479999,6.192 C92.1479999,5.616 92.6119999,5.136 93.4439999,5.136 C94.1639999,5.136 94.7239999,5.392 95.0279999,5.584 L95.3799999,4.56 C94.9479999,4.304 94.2599999,4.08 93.4759999,4.08 C91.8119999,4.08 90.8039999,5.104 90.8039999,6.352 C90.8039999,7.28 91.4599999,8.048 92.8519999,8.544 C93.8919999,8.928 94.2919999,9.296 94.2919999,9.968 C94.2919999,10.608 93.8119999,11.12 92.7879999,11.12 C92.0839999,11.12 91.3479999,10.832 90.9319999,10.56 L90.5799999,11.632 Z M99.0799999,2.4 L99.0799999,4.256 L97.8799999,4.256 L97.8799999,5.328 L99.0799999,5.328 L99.0799999,9.552 C99.0799999,10.464 99.2239999,11.152 99.6239999,11.568 C99.9599999,11.952 100.488,12.16 101.144,12.16 C101.688,12.16 102.12,12.08 102.392,11.968 L102.328,10.912 C102.152,10.96 101.88,11.008 101.512,11.008 C100.728,11.008 100.456,10.464 100.456,9.504 L100.456,5.328 L102.472,5.328 L102.472,4.256 L100.456,4.256 L100.456,2.032 L99.0799999,2.4 Z M111.484,8.384 L106.044,8.384 C106.076,10.288 107.292,11.072 108.7,11.072 C109.708,11.072 110.316,10.896 110.844,10.672 L111.084,11.68 C110.588,11.904 109.74,12.16 108.508,12.16 C106.124,12.16 104.7,10.592 104.7,8.256 C104.7,5.92 106.076,4.08 108.332,4.08 C110.86,4.08 111.532,6.304 111.532,7.728 C111.532,8.016 111.5,8.24 111.484,8.384 Z M106.06,7.376 L110.172,7.376 C110.188,6.48 109.804,5.088 108.22,5.088 C106.796,5.088 106.172,6.4 106.06,7.376 Z M119.856,0.64 L121.264,0.64 L121.264,10 C121.264,10.688 121.28,11.472 121.328,12 L120.064,12 L120,10.656 L119.968,10.656 C119.536,11.52 118.592,12.176 117.328,12.176 C115.456,12.176 114.016,10.592 114.016,8.24 C114,5.664 115.6,4.08 117.488,4.08 C118.672,4.08 119.472,4.64 119.824,5.264 L119.856,5.264 L119.856,0.64 Z M119.856,8.752 L119.856,7.408 C119.856,7.232 119.84,6.992 119.792,6.816 C119.584,5.92 118.816,5.184 117.76,5.184 C116.304,5.184 115.44,6.464 115.44,8.176 C115.44,9.744 116.208,11.04 117.728,11.04 C118.672,11.04 119.536,10.416 119.792,9.36 C119.84,9.168 119.856,8.976 119.856,8.752 Z M130.744,12 L129.528,12 C129.56,11.472 129.592,10.688 129.592,10 L129.592,0.64 L130.984,0.64 L130.984,5.504 L131.016,5.504 C131.512,4.64 132.408,4.08 133.656,4.08 C135.576,4.08 136.936,5.68 136.92,8.032 C136.92,10.8 135.176,12.176 133.448,12.176 C132.328,12.176 131.432,11.744 130.856,10.72 L130.808,10.72 L130.744,12 Z M130.984,7.504 L130.984,8.896 C130.984,9.072 131.016,9.248 131.048,9.408 C131.32,10.384 132.136,11.056 133.16,11.056 C134.632,11.056 135.512,9.856 135.512,8.08 C135.512,6.528 134.712,5.2 133.208,5.2 C132.248,5.2 131.352,5.856 131.064,6.928 C131.032,7.088 130.984,7.28 130.984,7.504 Z M138.972,4.256 L141.836,11.392 C141.9,11.568 141.932,11.68 141.932,11.76 C141.932,11.84 141.884,11.952 141.82,12.096 C141.5,12.816 141.02,13.36 140.636,13.664 C140.22,14.016 139.756,14.24 139.404,14.352 L139.756,15.536 C140.108,15.472 140.796,15.232 141.484,14.624 C142.444,13.792 143.132,12.432 144.14,9.776 L146.252,4.256 L144.764,4.256 L143.228,8.8 C143.036,9.36 142.876,9.952 142.732,10.416 L142.7,10.416 C142.572,9.952 142.38,9.344 142.204,8.832 L140.508,4.256 L138.972,4.256 Z"/>
    <g fill-rule="nonzero" transform="translate(0 21)">
      <g transform="translate(49.143 2.91)">
        <g transform="translate(.78 19.835)">
          <path d="M3.18703354,1.4947438 C3.16103179,1.36515702 3.11240854,1.24403306 3.04142378,1.13163636 C2.97043902,1.01897521 2.88177308,0.921123967 2.77542596,0.837818182 C2.66907883,0.75477686 2.54661063,0.689190083 2.40828136,0.641586777 C2.26995209,0.593719008 2.12148214,0.569917355 1.96313153,0.569917355 C1.73821646,0.569917355 1.5343628,0.610909091 1.35105052,0.692892562 C1.16773824,0.775140496 1.01146777,0.896264463 0.882759146,1.05626446 C0.754050523,1.21626446 0.65446385,1.41593388 0.584779181,1.65553719 C0.514834495,1.8951405 0.47999216,2.17361983 0.47999216,2.49097521 C0.47999216,2.80833058 0.514834495,3.08839669 0.584779181,3.33064463 C0.65446385,3.5726281 0.753790505,3.776 0.882759146,3.93970248 C1.01172779,4.10393388 1.16669817,4.22849587 1.3476703,4.3128595 C1.52864242,4.3974876 1.73015592,4.43980165 1.95273084,4.43980165 C2.28867334,4.43980165 2.56533188,4.35596694 2.78296646,4.1877686 C3.00060105,4.01957025 3.13529007,3.77441322 3.18755357,3.45150413 L3.48189329,3.45150413 C3.45355139,3.65804959 3.39556751,3.84264463 3.30820166,4.00528926 C3.2208358,4.16793388 3.11058841,4.30492562 2.97823955,4.416 C2.84563066,4.52733884 2.69326045,4.61196694 2.52060889,4.67014876 C2.34795732,4.72859504 2.16100479,4.75742149 1.96001132,4.75742149 C1.68543293,4.75742149 1.43893641,4.704 1.22026176,4.59689256 C1.00158711,4.48978512 0.815154617,4.33798347 0.661484321,4.14228099 C0.507554007,3.94657851 0.389506098,3.70882645 0.30656054,3.43008264 C0.223875,3.15080992 0.182272213,2.83821488 0.182272213,2.49123967 C0.182272213,2.14743802 0.223614983,1.8374876 0.30656054,1.56244628 C0.389506098,1.28740496 0.508074042,1.05229752 0.663304443,0.857917355 C0.818274826,0.66353719 1.00496733,0.51385124 1.223902,0.40938843 C1.44257666,0.30492562 1.6880331,0.252826446 1.96027134,0.252826446 C2.14696385,0.252826446 2.32507578,0.282975207 2.49434713,0.344066116 C2.66335845,0.404628099 2.81546864,0.49031405 2.95015767,0.600066116 C3.08484669,0.710082645 3.1984743,0.840727273 3.29078049,0.993057851 C3.38308667,1.14512397 3.44705096,1.31226446 3.48241333,1.49500826 L3.18703354,1.49500826 L3.18703354,1.4947438 Z"/>
          <polygon points="8.826 4.678 6.538 4.678 6.538 .331 6.822 .331 6.822 4.36 8.826 4.36"/>
          <path d="M13.4187191.252561983C13.6836768.252561983 13.9283532.305190083 14.1532683.411239669 14.3779233.517024793 14.5711163.668033058 14.7333672.863735537 14.895358 1.05943802 15.0219865 1.29507438 15.1129926 1.57038017 15.2039987 1.84568595 15.2495017 2.15246281 15.2495017 2.49097521 15.2495017 2.82710744 15.2045187 3.1338843 15.1145527 3.41157025 15.0245867 3.6892562 14.8987382 3.92833058 14.7367474 4.128 14.5744965 4.32793388 14.3818236 4.48290909 14.1584686 4.59239669 13.9348537 4.70241322 13.6883571 4.75715702 13.4187191 4.75715702 13.149081 4.75715702 12.9018044 4.70241322 12.6771494 4.59239669 12.4524943 4.48290909 12.2590414 4.32846281 12.0970505 4.1301157 11.9350597 3.9317686 11.8092112 3.69375207 11.7192452 3.41580165 11.6292792 3.13785124 11.5842962 2.8294876 11.5842962 2.49097521 11.5842962 2.14981818 11.6297992 1.84145455 11.7208053 1.56614876 11.8118114 1.29110744 11.9389599 1.05626446 12.1022509.861619835 12.2655418.667504132 12.4589948.517024793 12.6823497.411239669 12.9059647.305190083 13.1514212.252561983 13.4187191.252561983zM13.4150788 4.43980165C13.6373937 4.43980165 13.8425475 4.39669421 14.0308001 4.31100826 14.2187927 4.22479339 14.3813036 4.09838017 14.5185928 3.9317686 14.655622 3.76489256 14.7622291 3.56072727 14.8378942 3.3187438 14.9135592 3.07649587 14.9515218 2.80066116 14.9515218 2.49097521 14.9515218 2.17864463 14.9130392 1.90333884 14.8363341 1.66532231 14.7596289 1.42730579 14.6530218 1.22684298 14.5170327 1.06419835 14.3810436.901553719 14.2200928.778578512 14.0344403.695008264 13.8487879.611702479 13.6459743.569917355 13.4259996.569917355 13.2013445.569917355 12.9948907.612231405 12.8068981.696595041 12.6189055.78122314 12.4561346.905256198 12.3191054 1.06790083 12.1818162 1.23054545 12.074949 1.43100826 11.9979839 1.66902479 11.9210187 1.90704132 11.8827962 2.18102479 11.8827962 2.49044628 11.8827962 2.79986777 11.9204987 3.07596694 11.9964238 3.31821488 12.0720889 3.56019835 12.1779159 3.7646281 12.3139051 3.93123967 12.4498942 4.09785124 12.611885 4.224 12.7998776 4.31047934 12.9876102 4.39669421 13.1927639 4.43980165 13.4150788 4.43980165zM19.7319421 4.75715702C19.5000065 4.75715702 19.3021333 4.72991736 19.1378023 4.67596694 18.9732112 4.62175207 18.8367021 4.5482314 18.7280148 4.45540496 18.6193275 4.36284298 18.5330017 4.25441322 18.4690375 4.1301157 18.4050732 4.00581818 18.3567099 3.87332231 18.3234277 3.73342149 18.2904055 3.59299174 18.2696041 3.44753719 18.2612835 3.29679339 18.252963 3.14604959 18.2488027 2.99900826 18.2488027 2.85619835L18.2488027.331636364 18.5327417.331636364 18.5327417 2.84429752C18.5327417 3.1751405 18.5592635 3.44436364 18.6125671 3.65196694 18.6658706 3.85957025 18.7438759 4.02168595 18.8465828 4.13831405 18.9492896 4.25494215 19.074878 4.33401653 19.2225679 4.37633058 19.3702578 4.41864463 19.5400492 4.43980165 19.7316821 4.43980165 19.9256551 4.43980165 20.0977866 4.41864463 20.2478166 4.37633058 20.3978467 4.33401653 20.5234351 4.2538843 20.6240618 4.13619835 20.7244286 4.01877686 20.8008737 3.85639669 20.8528772 3.64985124 20.9048807 3.44383471 20.9308824 3.1751405 20.9308824 2.84429752L20.9308824.331636364 21.2148214.331636364 21.2148214 2.85619835C21.2148214 3.15530579 21.1921999 3.42267769 21.1474769 3.65804959 21.1024939 3.89368595 21.0244887 4.09256198 20.9132012 4.25520661 20.8019138 4.41785124 20.6505836 4.54241322 20.4589508 4.62836364 20.2673179 4.71431405 20.0252417 4.75715702 19.7319421 4.75715702zM27.5426054 2.4711405C27.5426054 3.94234711 26.8884016 4.67808264 25.5805139 4.67808264L24.4060152 4.67808264 24.4060152.335867769 25.5805139.335867769C26.2357578.335867769 26.7266707.512528926 27.0529926.86585124 27.3793145 1.21917355 27.5426054 1.75418182 27.5426054 2.4711405zM27.2412452 2.4711405C27.2412452 2.18552066 27.2157635 1.93004959 27.1650601 1.7052562 27.1140967 1.48046281 27.0249107 1.2892562 26.8972422 1.13190083 26.7695736.974280992 26.5987422.854479339 26.3844878.772495868 26.1704935.690512397 25.9000753.649520661 25.5737535.649520661L24.6904743.649520661 24.6904743 4.36072727 25.5737535 4.36072727C25.8979952 4.36072727 26.1668532 4.31841322 26.3808476 4.23378512 26.5948419 4.14915702 26.7656733 4.02538843 26.8936019 3.8627438 27.0212705 3.69983471 27.1112365 3.50228099 27.16324 3.26928926 27.2149834 3.03603306 27.2412452 2.77024793 27.2412452 2.4711405zM39.0761982 2.4711405C39.0761982 3.94234711 38.4219943 4.67808264 37.1143667 4.67808264L35.939868 4.67808264 35.939868.335867769 37.1143667.335867769C37.7696106.335867769 38.2602635.512528926 38.5865854.86585124 38.9131672 1.21890909 39.0761982 1.75418182 39.0761982 2.4711405zM38.774578 2.4711405C38.774578 2.18552066 38.7490963 1.93004959 38.6983929 1.7052562 38.6476895 1.48046281 38.5582435 1.2892562 38.4308349 1.13190083 38.3031664.974280992 38.1323349.854479339 37.9180806.772495868 37.7040862.690512397 37.4336681.649520661 37.1073463.649520661L36.2240671.649520661 36.2240671 4.36072727 37.1073463 4.36072727C37.431328 4.36072727 37.700446 4.31841322 37.9144403 4.23378512 38.1284347 4.14915702 38.2992661 4.02538843 38.4271947 3.8627438 38.5546032 3.69983471 38.6445693 3.50228099 38.6968328 3.26928926 38.7485762 3.03603306 38.774578 2.77024793 38.774578 2.4711405z"/>
          <polygon points="44.914 4.678 42.108 4.678 42.108 .331 44.818 .331 44.818 .649 42.392 .649 42.392 2.256 44.666 2.256 44.666 2.574 42.392 2.574 42.392 4.36 44.914 4.36"/>
          <polygon points="50.997 .332 49.475 4.678 49.109 4.678 47.587 .332 47.903 .332 49.294 4.281 50.685 .332 50.997 .332"/>
          <polygon points="56.633 4.678 53.826 4.678 53.826 .331 56.537 .331 56.537 .649 54.11 .649 54.11 2.256 56.384 2.256 56.384 2.574 54.11 2.574 54.11 4.36 56.633 4.36"/>
          <polygon points="61.981 4.678 59.692 4.678 59.692 .331 59.976 .331 59.976 4.36 61.981 4.36"/>
          <path d="M66.5730405.252561983C66.8382583.252561983 67.0829347.305190083 67.3075897.411239669 67.5322448.517289256 67.7254377.668033058 67.8874286.863735537 68.0494194 1.05943802 68.1760479 1.29507438 68.267054 1.57038017 68.3583201 1.84568595 68.4035632 2.15246281 68.4035632 2.49097521 68.4035632 2.82710744 68.3585801 3.1338843 68.2686141 3.41157025 68.1786481 3.6892562 68.0527997 3.92833058 67.8908088 4.128 67.7288179 4.32793388 67.536145 4.48290909 67.3125301 4.59239669 67.0891751 4.70241322 66.8421585 4.75715702 66.5725205 4.75715702 66.3031424 4.75715702 66.0558659 4.70241322 65.8309508 4.59239669 65.6062957 4.48290909 65.4131028 4.32846281 65.2511119 4.1301157 65.0888611 3.9317686 64.9630126 3.69375207 64.8733066 3.41580165 64.7830806 3.13785124 64.7383576 2.8294876 64.7383576 2.49097521 64.7383576 2.14981818 64.7838606 1.84145455 64.8748667 1.56614876 64.9658728 1.29110744 65.0930213 1.05626446 65.2563123.861619835 65.4193432.667504132 65.6127962.517024793 65.8361511.411239669 66.0595061.305454545 66.3060026.252561983 66.5730405.252561983zM66.5699203 4.43980165C66.7919752 4.43980165 66.9973889 4.39669421 67.1853815 4.31100826 67.3733741 4.22479339 67.536145 4.09838017 67.6731742 3.9317686 67.8102034 3.76489256 67.9168105 3.56072727 67.9927356 3.3187438 68.0684007 3.07649587 68.1063632 2.80066116 68.1063632 2.49097521 68.1063632 2.17864463 68.0678807 1.90333884 67.9911755 1.66532231 67.9142104 1.42730579 67.8078632 1.22684298 67.6716141 1.06419835 67.535365.901553719 67.3746742.778578512 67.1892818.695008264 67.0033693.611702479 66.8008158.569917355 66.580581.569917355 66.355926.569917355 66.1497321.612231405 65.9614795.696595041 65.7734869.78122314 65.610716.905256198 65.4736868 1.06790083 65.3366577 1.23054545 65.2295305 1.43100826 65.1525653 1.66902479 65.0758602 1.90704132 65.0373776 2.18102479 65.0373776 2.49044628 65.0373776 2.79986777 65.0753402 3.07596694 65.1510052 3.31821488 65.2266703 3.56019835 65.3324974 3.7646281 65.4687465 3.93123967 65.6047356 4.09785124 65.7667265 4.224 65.9547191 4.31047934 66.1421916 4.39669421 66.3473454 4.43980165 66.5699203 4.43980165zM71.4033841.331636364L72.8155388.331636364C73.0048314.331636364 73.1871037.349090909 73.3620954.383206612 73.5370871.41785124 73.6915375.480528926 73.8249264.571768595 73.9588354.663272727 74.0651825.78677686 74.1444878.94307438 74.2237931 1.09910744 74.2633158 1.29745455 74.2633158 1.5381157 74.2633158 1.96416529 74.1431877 2.28866116 73.9031916 2.51080992 73.6629355 2.73295868 73.3124321 2.84429752 72.8511611 2.84429752L71.6873232 2.84429752 71.6873232 4.67808264 71.4033841 4.67808264 71.4033841.331636364zM71.6873232 2.52694215L72.8618219 2.52694215C73.0604752 2.52694215 73.2294865 2.50578512 73.3691159 2.46347107 73.5087452 2.42115702 73.6228929 2.3587438 73.7112988 2.27676033 73.8002247 2.19477686 73.864449 2.09375207 73.9047517 1.97342149 73.9447944 1.85309091 73.9648158 1.71345455 73.9648158 1.5545124 73.9648158 1.36145455 73.9349138 1.20542149 73.8743297 1.08614876 73.8142657.967404959 73.7323602.875371901 73.6296533.81031405 73.5266864.745785124 73.4078584.702677686 73.2731694.681520661 73.1384804.660363636 72.9965109.649785124 72.8472609.649785124L71.6870632.649785124 71.6870632 2.52694215 71.6873232 2.52694215z"/>
          <polygon points="80.878 4.678 80.594 4.678 80.594 .852 79.196 4.678 78.898 4.678 77.504 .852 77.504 4.678 77.22 4.678 77.22 .331 77.632 .331 79.047 4.281 80.473 .331 80.878 .331 80.878 4.678"/>
          <polygon points="86.851 4.678 84.045 4.678 84.045 .331 86.755 .331 86.755 .649 84.329 .649 84.329 2.256 86.603 2.256 86.603 2.574 84.329 2.574 84.329 4.36 86.851 4.36"/>
          <polygon points="92.895 4.678 92.522 4.678 90.152 .708 90.152 4.678 89.868 4.678 89.868 .331 90.259 .331 92.611 4.293 92.611 .331 92.895 .331"/>
          <polygon points="98.733 .649 97.374 .649 97.374 4.678 97.09 4.678 97.09 .649 95.745 .649 95.745 .332 98.733 .332 98.733 .649"/>
        </g>
        <path d="M12.8149586,14.1746777 L12.7431938,14.24 C12.7330531,14.2492562 11.7000039,15.1693223 9.41003049,15.1693223 C6.10598911,15.1693223 3.31496211,12.0632066 3.31496211,8.38690909 C3.31496211,4.71034711 6.10598911,1.6042314 9.41003049,1.6042314 C11.0775222,1.6042314 12.4491141,2.21804959 13.6022914,3.48059504 L14.0375605,3.95689256 L14.0375605,0.799206612 L13.8695893,0.738909091 C13.8183659,0.72092562 12.581203,0.292495868 9.41003049,0.292495868 C4.30744861,0.292495868 0.15627047,3.92357025 0.15627047,8.38717355 C0.15627047,13.2289587 3.87503963,16.4815868 9.41003049,16.4815868 C12.657128,16.4815868 13.939794,14.6530909 13.9928375,14.5750744 L14.2658558,14.1741488 L12.8149586,14.1746777 Z"/>
        <polygon points="66.807 16.481 68.883 16.481 68.883 6.056 66.807 3.886"/>
        <path d="M27.1164368.291966942C22.5570314.291966942 18.8476228 3.92304132 18.8476228 8.38664463 18.8476228 12.8499835 22.5570314 16.4810579 27.1164368 16.4810579 31.6758423 16.4810579 35.3852509 12.8499835 35.3852509 8.38664463 35.3852509 3.92330579 31.6758423.291966942 27.1164368.291966942zM32.2265592 8.38690909C32.2265592 12.1269421 29.9342456 15.1693223 27.1164368 15.1693223 24.298628 15.1693223 22.0063145 12.1266777 22.0063145 8.38690909 22.0063145 4.6471405 24.298628 1.6042314 27.1164368 1.6042314 29.9342456 1.6042314 32.2265592 4.64687603 32.2265592 8.38690909zM45.7823075.292760331L45.7804874.292760331C45.7513654.290115702 45.0550388.231140496 43.9871472.231140496 43.3605052.231140496 42.7362034.251768595 42.1319229.292495868 39.9007134.442975207 38.5377021.647933884 38.5241812.650049587L38.3099268.682578512 38.3099268 1.85309091 38.5696842 1.84409917C38.5912657 1.84330579 40.7499303 1.76872727 41.774659 1.76872727 42.7975675 1.76872727 44.4221564 1.84330579 44.4421777 1.84409917 48.4240845 1.96733884 50.8690283 5.73804959 50.8690283 8.38690909 50.8690283 12.1269421 48.5767147 15.1693223 45.7583859 15.1693223L43.3540048 15.1756694 43.3540048 3.95371901 40.1953132 3.95371901 40.1953132 16.4813223 45.7591659 16.4813223C50.3185714 16.4813223 54.0277199 12.8502479 54.0277199 8.38690909 54.02798 3.92383471 50.3196115.292760331 45.7823075.292760331zM96.8598698 8.13143802L96.8598698 14.8035702C96.2776908 14.9664793 94.8790571 15.1693223 94.2648959 15.1693223 90.9611145 15.1693223 88.1698275 12.0632066 88.1698275 8.38690909 88.1698275 4.71034711 90.9611145 1.6042314 94.2648959 1.6042314 95.9323876 1.6042314 97.3039795 2.21804959 98.4571568 3.48059504L98.892426 3.95689256 98.892426.799206612 98.7244547.738909091C98.6732313.72092562 97.4360684.292495868 94.2648959.292495868 89.162314.292495868 85.0111359 3.92357025 85.0111359 8.38717355 85.0111359 13.2289587 88.7299051 16.4815868 94.2648959 16.4815868 99.6560971 16.4815868 100.00478 13.8975207 100.017001 13.7875041L100.018561 8.13143802 96.8598698 8.13143802z"/>
        <polygon points="78.142 11.35 69.467 .292 66.807 .292 66.807 1.916 78.371 16.278 78.371 16.481 80.201 16.481 80.201 .292 78.142 .292"/>
        <rect width="3.158" height="1" x="58.838" y="2.425"/>
        <rect width="3.158" height="1" x="58.838" y=".292"/>
        <rect width="3.158" height="1" x="58.838" y="1.258"/>
        <rect width="3.158" height="12.733" x="58.838" y="3.748"/>
      </g>
      <path d="M39.1877456,13.2860826 C38.0600501,13.2860826 37.0717239,14.0136198 36.5191868,15.1047934 C34.6392609,10.9585455 30.7285989,7.11722314 25.895395,5.53547107 C23.2874203,4.47709091 21.4561176,2.44575207 21.2299024,0.0716694215 C21.0034273,2.44575207 19.1721246,4.47709091 16.5644098,5.53547107 C11.731206,7.11722314 7.82054399,10.9585455 5.94061803,15.1047934 C5.38808101,14.0136198 4.39975479,13.2860826 3.27205923,13.2860826 C1.54034321,13.2860826 0.136249129,15.0008595 0.136249129,17.1157686 C0.136249129,19.2309421 1.54008319,20.945719 3.27205923,20.945719 C3.79885453,20.945719 4.29496777,20.7862479 4.73075697,20.5059174 C4.87974695,27.3737521 12.2059978,31.8318017 21.2301625,31.8437025 C30.2543271,31.8318017 37.580578,27.3737521 37.7295679,20.5059174 C38.1653571,20.7862479 38.6614704,20.945719 39.1882657,20.945719 C40.9199817,20.945719 42.3240758,19.2309421 42.3240758,17.1157686 C42.3232957,15.0008595 40.9194617,13.2860826 39.1877456,13.2860826 Z M4.69747474,18.3127273 C4.55082491,18.8641322 3.89766115,19.0989752 3.23903702,18.8374215 C2.58015287,18.5758678 2.16490505,17.9170909 2.31155488,17.365686 C2.4582047,16.814281 3.11136847,16.579438 3.77025261,16.8409917 C4.42887674,17.1025455 4.84412456,17.7613223 4.69747474,18.3127273 Z M21.2296424,29.9319008 C13.9917975,29.9202645 8.13022474,26.4510413 8.13022474,21.4844298 C8.13022474,21.3804959 8.13386498,21.2773554 8.13880531,21.1744793 C8.14036542,21.1406281 8.14218554,21.1067769 8.1445257,21.0729256 C8.14894599,21.0025785 8.15518641,20.9327603 8.16194686,20.8632066 C8.17130749,20.7698512 8.18196821,20.6764959 8.19548911,20.5839339 C8.1967892,20.5746777 8.19808929,20.5654215 8.19938937,20.5564298 C8.34499913,19.5802975 8.71812413,18.0905785 9.28158188,17.2321322 C10.6349726,15.2407273 13.0492343,13.9141818 15.8035989,13.9141818 C17.9237809,13.9141818 19.8411494,14.7017521 21.2299024,15.9719669 C22.6186555,14.7017521 24.536024,13.9141818 26.656206,13.9141818 C29.4105706,13.9141818 31.8245723,15.2407273 33.178223,17.2321322 C33.7416807,18.0905785 34.1145457,19.5802975 34.2604155,20.5564298 C34.2617156,20.565686 34.2630157,20.5746777 34.2643158,20.5839339 C34.2778367,20.6764959 34.2884974,20.7698512 34.297858,20.8632066 C34.3046185,20.9330248 34.3108589,21.002843 34.3152792,21.0729256 C34.3173593,21.1067769 34.3191794,21.1406281 34.3209996,21.1744793 C34.3259399,21.2773554 34.3295801,21.3804959 34.3295801,21.4844298 C34.3293201,26.4510413 28.4677474,29.9205289 21.2296424,29.9319008 Z M39.2207679,18.8374215 C38.5618837,19.0989752 37.90898,18.8638678 37.7620701,18.3127273 C37.6151603,17.7615868 38.0306681,17.1025455 38.6895523,16.8409917 C39.3484364,16.579438 40.0013402,16.8145455 40.14825,17.365686 C40.2946398,17.9170909 39.879392,18.5761322 39.2207679,18.8374215 Z M13.0435131,19.5186777 C12.663825,19.5186777 12.356027,19.1427449 12.356027,18.6790083 C12.356027,18.2152716 12.663825,17.8393388 13.0435131,17.8393388 C13.4232011,17.8393388 13.7309991,18.2152716 13.7309991,18.6790083 C13.7309991,19.1427449 13.4232011,19.5186777 13.0435131,19.5186777 Z M29.4168109,19.5199897 C29.0371228,19.5199897 28.7293249,19.1440569 28.7293249,18.6803202 C28.7293249,18.2165836 29.0371228,17.8406508 29.4168109,17.8406508 C29.796499,17.8406508 30.104297,18.2165836 30.104297,18.6803202 C30.104297,19.1440569 29.796499,19.5199897 29.4168109,19.5199897 Z"/>
    </g>
  </g>
</svg>
